<svg xmlns="http://www.w3.org/2000/svg" viewBox="0 0 600 600">
  <path
    d="M300.37 487a45 45 0 1 1 .17 90h-1.08a45 45 0 1 1 .17-90zm-196.5-55.15a45 45 0 0 1 64.16.64 45 45 0 1 1-64.28 63 45 45 0 0 1 .12-63.64m328.62.12a45 45 0 1 1 63 64.28 45 45 0 1 1-63-64.28M300.5 162c75.94 0 137.5 61.56 137.5 137.5S376.44 437 300.5 437h-.5q-1.07 0-2.14-.03C223.14 435.57 163 374.56 163 299.5c0-75.94 61.56-137.5 137.5-137.5M68.09 254.54a45 45 0 0 1 44.91 45.1v.73a45 45 0 1 1-90 .17v-1.08a45 45 0 0 1 45.09-44.92m463.82 0A45 45 0 0 1 577 299.46v1.08a45 45 0 1 1-90-.17v-.74a45 45 0 0 1 44.91-45.09M300.5 212a87.5 87.5 0 0 0-79.2 124.75 81.03 81.03 0 0 1 157.72 1.4A87.5 87.5 0 0 0 300.5 212M104.51 103.75a45 45 0 1 1 63 64.28 45 45 0 1 1-63-64.28m327.34.12a45 45 0 0 1 64.4.64 45 45 0 1 1-64.28 63 45 45 0 0 1-.12-63.64M300.55 23a45 45 0 1 1-.18 90h-.74a45 45 0 1 1-.17-90h1.08"
  />
</svg>