<svg xmlns="http://www.w3.org/2000/svg" viewBox="0 0 64 64">
  <style>
    path { fill: #0D0E02; }
    @media (prefers-color-scheme: dark) { path { fill: #fcfcf5; } }
  </style>
  <path
    d="M32.043 53.603A5.199 5.199 0 1 1 32.063 64h-.126a5.198 5.198 0 1 1 .02-10.397zm-22.7-6.372a5.2 5.2 0 0 1 7.411.074 5.199 5.199 0 1 1-7.426 7.278 5.2 5.2 0 0 1 .015-7.352m37.962.015a5.199 5.199 0 1 1 7.278 7.426 5.199 5.199 0 1 1-7.278-7.426M32.058 16.058c8.773 0 15.884 7.111 15.884 15.884s-7.111 15.885-15.884 15.885H32q-.124 0-.247-.004c-8.632-.162-15.58-7.21-15.58-15.88 0-8.774 7.112-15.885 15.885-15.885m-26.85 10.69a5.2 5.2 0 0 1 5.19 5.21v.085A5.199 5.199 0 1 1 0 32.063v-.126a5.2 5.2 0 0 1 5.21-5.187m53.583 0A5.2 5.2 0 0 1 64 31.939v.125a5.198 5.198 0 1 1-10.397-.02v-.086a5.2 5.2 0 0 1 5.188-5.208m-26.733-4.914c-5.583 0-10.108 4.526-10.108 10.108 0 1.54.343 2.998.959 4.303.998-4.094 4.69-7.133 9.091-7.133 4.46 0 8.19 3.12 9.13 7.295a10.1 10.1 0 0 0 1.036-4.465c0-5.582-4.526-10.108-10.108-10.108M9.417 9.328a5.199 5.199 0 1 1 7.278 7.426 5.199 5.199 0 1 1-7.278-7.426m37.814.015a5.2 5.2 0 0 1 7.44.074 5.199 5.199 0 1 1-7.425 7.278 5.2 5.2 0 0 1-.015-7.352M32.063 0a5.198 5.198 0 1 1-.02 10.397h-.086A5.199 5.199 0 1 1 31.937 0z"
  />
</svg>